<svg xmlns="http://www.w3.org/2000/svg" viewBox="2.071 4.4982 21.88 14.45">
	<path d="m 16.3154 14.2783 c 0.3885 0.5477 0.9088 0.9976 1.5262 1.304 l -1.5262 1.4344 l -1.5262 -1.4344 c 0.6174 -0.3064 1.1446 -0.7563 1.5262 -1.304 m 3.4686 -3.1296 a 1.3874 1.304 0 0 0 -1.3874 1.304 a 1.3874 1.304 0 0 0 1.3874 1.304 a 1.3874 1.304 0 0 0 1.3874 -1.304 c 0 -0.7237 -0.6243 -1.304 -1.3874 -1.304 m -6.9371 0 a 1.3874 1.304 0 0 0 -1.3874 1.304 a 1.3874 1.304 0 0 0 1.3874 1.304 a 1.3874 1.304 0 0 0 1.3874 -1.304 c 0 -0.7237 -0.6243 -1.304 -1.3874 -1.304 m 6.9371 -1.63 a 2.7748 2.608 0 0 1 2.7748 2.608 a 2.7748 2.608 0 0 1 -2.7748 2.608 a 2.7748 2.608 0 0 1 -2.7748 -2.608 a 2.7748 2.608 0 0 1 2.7748 -2.608 m -6.9371 0 A 2.7748 2.608 0 0 1 15.6217 12.1267 A 2.7748 2.608 0 0 1 12.8469 14.7347 A 2.7748 2.608 0 0 1 10.072 12.1267 A 2.7748 2.608 0 0 1 12.8469 9.5186 M 9.5448 4.4982 C 10.7657 6.9106 9.8847 8.7102 9.0661 10.4966 C 8.8164 11.0182 8.6846 11.5594 8.6846 12.1267 a 4.1623 3.912 0 0 0 4.1623 3.912 c 0.1457 -0.0065 0.2914 -0.013 0.437 -0.0326 l 2.0534 1.9299 l 0.9781 0.9063 l 0.9781 -0.9063 l 2.0534 -1.9299 c 0.1457 0.0196 0.2914 0.0261 0.437 0.0326 a 4.1623 3.912 0 0 0 4.1623 -3.912 c 0 -0.5672 -0.1318 -1.1084 -0.3815 -1.63 C 22.7461 8.7102 21.8651 6.9106 23.086 4.4982 C 21.2546 5.8413 18.6463 6.9041 16.3154 6.9106 C 13.9845 6.9041 11.3762 5.8413 9.5448 4.4982 Z M 4.074 5.061 L 6.958 5.061 L 6.958 15.892 L 8.961 15.914 L 5.549 18.953 L 2.071 15.937 L 4.096 15.936" fill="#000000"/>
</svg>